<?xml version="1.0" encoding="UTF-8" standalone="no"?>
<!-- Created with Inkscape (http://www.inkscape.org/) -->

<svg
   width="15.999999"
   height="16"
   viewBox="0 0 4.233333 4.2333334"
   version="1.1"
   id="svg1"
   xmlns:xlink="http://www.w3.org/1999/xlink"
   xmlns="http://www.w3.org/2000/svg"
   xmlns:svg="http://www.w3.org/2000/svg">
  <defs
     id="defs1">
    <linearGradient
       id="linearGradient7">
      <stop
         style="stop-color:#0c9fe8;stop-opacity:1;"
         offset="0"
         id="stop7" />
      <stop
         style="stop-color:#0a4acc;stop-opacity:1;"
         offset="1"
         id="stop8" />
    </linearGradient>
    <linearGradient
       xlink:href="#linearGradient7"
       id="linearGradient8"
       x1="0.52916664"
       y1="0.79374993"
       x2="3.7041664"
       y2="3.4395831"
       gradientUnits="userSpaceOnUse" />
  </defs>
  <g
     id="layer1">
    <path
       id="path6"
       style="color:#000000;fill:url(#linearGradient8);stroke-linecap:round;-inkscape-stroke:none"
       d="m 1.4510742,0.25011393 c -0.1380431,0 -0.251644,0.0696314 -0.3281453,0.14262696 C 1.0464276,0.46573647 0.99273375,0.54860444 0.94361165,0.6387207 0.84536744,0.81895324 0.77275183,1.0301615 0.71106771,1.2402344 0.7021624,1.2705624 0.69408906,1.300578 0.68574626,1.3306681 A 0.79374993,0.81351316 0 0 0 0,2.1363037 0.79374993,0.81351316 0 0 0 0.79375,2.9496908 0.79374993,0.81351316 0 0 0 1.5875,2.1363037 0.79374993,0.81351316 0 0 0 1.2035441,1.4397054 c 0.00463,-0.016365 0.00863,-0.032724 0.013436,-0.049093 0.055932,-0.1904826 0.1256907,-0.3800438 0.1912028,-0.50022787 0.01733,-0.0317922 0.028165,-0.0401737 0.042891,-0.0604614 0.01435,0.0200233 0.024603,0.0295371 0.041341,0.0604614 0.064969,0.12003777 0.1339488,0.30770877 0.1891357,0.49816077 0.110374,0.3809042 0.1741496,0.7715291 0.1741496,0.7715292 2.94e-4,0.00183 0.066216,0.4104965 0.1870687,0.8299235 0.060562,0.210183 0.1327273,0.4230002 0.2304769,0.6035807 0.048875,0.09029 0.1031356,0.1748366 0.1798339,0.2480469 0.076699,0.07321 0.190351,0.142627 0.3281454,0.1426269 0.1377942,-1e-7 0.2513006,-0.069655 0.3281453,-0.1426269 0.076844,-0.072973 0.1305265,-0.1557928 0.179834,-0.2459798 0.098615,-0.1803741 0.172406,-0.3934409 0.2340943,-0.6035808 0.00884,-0.030108 0.017056,-0.059528 0.025321,-0.0894 a 0.79374993,0.79374993 0 0 0 0.6847127,-0.7859985 0.79374993,0.79374993 0 0 0 -0.79375,-0.79375 0.79374993,0.79374993 0 0 0 -0.79375,0.79375 0.79374993,0.79374993 0 0 0 0.3834392,0.6779948 c -0.00464,0.016383 -0.00863,0.032714 -0.013436,0.049093 -0.055898,0.1904156 -0.124022,0.378118 -0.1896525,0.4981608 -0.018023,0.032965 -0.029842,0.04356 -0.044958,0.064079 C 2.7663491,3.385611 2.7560343,3.3746138 2.7383341,3.3419149 2.6734659,3.2220787 2.6056022,3.0341266 2.5507487,2.8437541 2.4410414,2.4630088 2.3771159,2.074292 2.3771159,2.074292 c 0,0 -0.065823,-0.4117837 -0.1875855,-0.8319906 C 2.1286492,1.0321979 2.0546136,0.81909955 1.9569865,0.6387207 1.9081729,0.54853128 1.8535488,0.46590592 1.7771525,0.39274089 1.7007563,0.31957583 1.5891175,0.25011393 1.4510742,0.25011393 Z M 0.79375,1.7590658 A 0.39687499,0.39687499 0 0 1 1.190625,2.1559408 0.39687499,0.39687499 0 0 1 0.79375,2.5528158 0.39687499,0.39687499 0 0 1 0.396875,2.1559408 0.39687499,0.39687499 0 0 1 0.79375,1.7590658 Z" />
  </g>
</svg>
