<?xml version="1.0" encoding="UTF-8" standalone="no"?>
<!-- Created with Inkscape (http://www.inkscape.org/) -->

<svg
   width="31.999998"
   height="31.999998"
   viewBox="0 0 8.466666 8.4666661"
   version="1.1"
   id="svg1"
   xmlns:xlink="http://www.w3.org/1999/xlink"
   xmlns="http://www.w3.org/2000/svg"
   xmlns:svg="http://www.w3.org/2000/svg">
  <defs
     id="defs1">
    <linearGradient
       id="linearGradient16">
      <stop
         style="stop-color:#51b9ff;stop-opacity:1;"
         offset="0"
         id="stop15" />
      <stop
         style="stop-color:#cb0098;stop-opacity:1;"
         offset="1"
         id="stop16" />
    </linearGradient>
    <linearGradient
       xlink:href="#linearGradient16"
       id="linearGradient10"
       x1="2.1197197"
       y1="1.0583333"
       x2="6.3510175"
       y2="7.4083328"
       gradientUnits="userSpaceOnUse"
       gradientTransform="matrix(0.7503608,0,0,1.3333333,-0.00305465,-1.411111)" />
  </defs>
  <g
     id="layer1">
    <path
       style="fill:#000000;fill-opacity:1;stroke:none;stroke-width:2.59113;stroke-linecap:round;stroke-dasharray:none;stroke-opacity:0.99999"
       d="m 2.1166666,4.233333 c 0,0 0.5291666,-4.233333 1.5874999,-4.233333 1.0583333,0 1.5875,4.233333 1.5875,4.233333 0,0 0.5291666,4.2333333 1.5874999,4.2333333 1.0583333,0 1.5875,-4.2333333 1.5875,-4.2333333"
       id="path8-2" />
    <path
       style="fill:#ffffff;fill-opacity:1;stroke:none;stroke-width:2.59113;stroke-linecap:round;stroke-dasharray:none;stroke-opacity:0.99999"
       d="m 1.0583333,4.233333 c 0,0 0.5291666,-4.233333 1.5874999,-4.233333 1.0583333,0 1.5875,4.233333 1.5875,4.233333 0,0 0.5291666,4.2333333 1.5874999,4.2333333 1.0583333,0 1.5875,-4.2333333 1.5875,-4.2333333"
       id="path8-2-6" />
    <path
       style="fill:url(#linearGradient10);stroke:none;stroke-width:2.59113;stroke-linecap:round;stroke-dasharray:none;stroke-opacity:0.99999"
       d="M 0,4.233333 C 0,4.233333 0.52916665,0 1.5874999,0 c 1.0583333,0 1.5875,4.233333 1.5875,4.233333 0,0 0.5291666,4.2333333 1.5874999,4.2333333 1.0583333,0 1.5875,-4.2333333 1.5875,-4.2333333"
       id="path8" />
  </g>
</svg>
